<svg xmlns="http://www.w3.org/2000/svg">
  <symbol id="logo" viewBox="0 0 257 257"><defs><style>.cls-1{fill:#383a3b;stroke:#383a3b;stroke-linecap:round;stroke-linejoin:round;stroke-width:5px;}</style></defs><path class="cls-1" d="M254.63,58.43a2.65,2.65,0,0,0-.1-.55,2.54,2.54,0,0,0-.22-.6,1.55,1.55,0,0,0-.08-.23c-.06-.09-.15-.14-.21-.23a2.67,2.67,0,0,0-.43-.46,2.3,2.3,0,0,0-.52-.36c-.09,0-.15-.14-.25-.18L213.58,38.9a1.16,1.16,0,0,0-.18,0,2.82,2.82,0,0,0-.64-.14,3.53,3.53,0,0,0-.56,0,3.29,3.29,0,0,0-.53.1,3,3,0,0,0-.64.2,1,1,0,0,0-.16.05L178.14,56.79V24.42s0,0,0-.05a3,3,0,0,0-.28-1.27,1.56,1.56,0,0,0-.16-.2,2.26,2.26,0,0,0-.23-.31,3,3,0,0,0-1-.83c-.07,0-.1-.11-.17-.14L134.6,3.1a3.1,3.1,0,0,0-2.63,0L4.39,66a3.07,3.07,0,0,0-1.72,2.74v40.46c0,.09.05.17.06.27a3,3,0,0,0,.34,1.14,2.44,2.44,0,0,0,.32.47,2.73,2.73,0,0,0,.44.46c.07.05.11.14.19.19l38.4,26.06v87.41a3,3,0,0,0,.85,2.09,3,3,0,0,0,1,1.16l38.79,25.83s.12,0,.18.06l.06,0c.09.05.15.12.24.16a3.15,3.15,0,0,0,1.23.26h0a3.1,3.1,0,0,0,1.12-.22l.2-.1c.1,0,.18-.12.28-.18a2.91,2.91,0,0,0,.41-.24l23.93-20.35,9.53,6.57c.05,0,.11,0,.16.05s.18.13.28.18a3.05,3.05,0,0,0,1.31.32h0a3.15,3.15,0,0,0,1.3-.31c.09,0,.15-.1.24-.15s.1,0,.15-.05l66.79-43.93,21.87,16.22h0a3.1,3.1,0,0,0,2.43,1.17,3.44,3.44,0,0,0,.95-.32,3.19,3.19,0,0,0,.33-.11l.12,0c.16-.08.35-.06.51-.17l36.78-28.65s.07-.1.12-.14a3.21,3.21,0,0,0,.42-.48,3.46,3.46,0,0,0,.31-.47,3.27,3.27,0,0,0,.17-.53,2.74,2.74,0,0,0,.13-.62c0-.06,0-.12,0-.18V59.33c0-.12,0-.22-.06-.34A2.63,2.63,0,0,0,254.63,58.43ZM217.83,176.5a2.63,2.63,0,0,0-.12-.61,2.83,2.83,0,0,0-.23-.57c0-.08,0-.17-.1-.25s-.15-.13-.21-.21a3.12,3.12,0,0,0-.45-.44,2.51,2.51,0,0,0-.48-.32,3.11,3.11,0,0,0-.53-.22,3.42,3.42,0,0,0-.62-.13c-.1,0-.19-.05-.29-.05a2.16,2.16,0,0,0-.27.05,3.29,3.29,0,0,0-.61.12,2.83,2.83,0,0,0-.57.23c-.08.05-.18.05-.25.11l-88,57.89-.21-41.89,91.65-59.9c.08-.06.13-.14.21-.21a3.12,3.12,0,0,0,.45-.44,3,3,0,0,0,.32-.47,3.21,3.21,0,0,0,.22-.54,2.47,2.47,0,0,0,.13-.6,2.65,2.65,0,0,0,.06-.3V82.35L248.5,64.06V180.6l-30.61,23.84V176.76A2.44,2.44,0,0,0,217.83,176.5Zm-130,34V169.17l30.81,20.92.21,41.82ZM92.18,70,125,88.5l-41.1,23.41L51.53,92.31ZM172,54.88l-26.69-13L172,29.28Zm40.54-9.76,32.36,14L216,76.31,183.87,60.67Zm-.79,81-40.26,26.31-.88-41.77,41.14-24.59Zm-89.85,58.72L90.65,163.64l39.73-24.84,32.3,19.34Zm5.4-51.32-39.4,24.64V116.72l39.4-22.44Zm37.13-22.77.88,41.8-31.83-19.07V93.27ZM48.6,97.72l33.08,20V246L48.6,224ZM133.41,9.29l34.27,15.22L137.16,38.94a3.32,3.32,0,0,0,0,5.84l38.32,18.63a3.18,3.18,0,0,0,.32.16l33.95,16.51L167.4,105.37,93.73,63.81c-.11-.06-.23-.06-.34-.11a3.12,3.12,0,0,0-.59-.19,3.05,3.05,0,0,0-.6-.06,2.41,2.41,0,0,0-.54,0,2.81,2.81,0,0,0-.66.2,1.42,1.42,0,0,0-.29.1L45.46,88.63,12.68,68.79ZM8.85,107.61V73.66L42.42,94v36.41Zm79,137.49V218l17.6,12.14Zm123.85-62.63v22L196,192.82Z" transform="translate(-0.17 -0.33)"/></symbol>
  <symbol id="logo-title" viewBox="0 0 649.35 90.09"><defs><style>.cls-1{fill:#383a3b;}</style></defs><path class="cls-1" d="M119.81,20.38V92.6H101.45V20.38H74.88V4.83h71.49V20.38Z" transform="translate(-74.88 -4.83)"/><path class="cls-1" d="M227.65,4.83V61.92q0,16.88-9.67,25.18-9.18,7.83-26.44,7.82a46.41,46.41,0,0,1-14-2,30.73,30.73,0,0,1-14-8.68q-6.85-7.7-6.86-21.27V4.83H175.5v57q0,8.68,4.41,13.14a15.15,15.15,0,0,0,11.26,4.46c6.12,0,10.6-1.43,13.47-4.27s4.28-7,4.28-12.48V4.83Z" transform="translate(-74.88 -4.83)"/><path class="cls-1" d="M283,20.38V92.6H264.61V20.38H238.05V4.83h71.48V20.38Z" transform="translate(-74.88 -4.83)"/><path class="cls-1" d="M385.06,4.83V20.38H338.42V38.74h42.84V54.29H338.42V77.06h48.72V92.6H320.43V4.83Z" transform="translate(-74.88 -4.83)"/><path class="cls-1" d="M420.43,4.83V76.69h43.7V92.6H402.07V4.83Z" transform="translate(-74.88 -4.83)"/><path class="cls-1" d="M495.46,74.49,489.35,92.6H470L501.49,4.83h21.27L553.49,92.6h-20l-5.62-18.11Zm4.9-15.19h22.4L511.87,24.67Z" transform="translate(-74.88 -4.83)"/><path class="cls-1" d="M565.23,92.6V4.83h44.44q12,0,19,5.74,8.68,7.09,8.69,19.05a23.75,23.75,0,0,1-3.61,13,18.67,18.67,0,0,1-10,7.87q6.24,2.82,8.32,6.12,2.8,4.65,2.82,16.16,0,10.4.54,13.47a4.91,4.91,0,0,0,3.37,4V92.6H618.49A53.25,53.25,0,0,1,617,85.37a86.37,86.37,0,0,1-.49-10.52q0-10-2-12.85-2.68-3.8-12.36-3.8h-19V92.6Zm18-49.21h21.54q7.35,0,10.77-2.73t3.44-9.2A11.53,11.53,0,0,0,616.64,24c-2.2-2.67-5.7-4-10.52-4H583.23Z" transform="translate(-74.88 -4.83)"/><path class="cls-1" d="M694.86,59.72V92.6H676.5V59.47L646.14,4.83h21.67L686.05,43,703.43,4.83h20.81Z" transform="translate(-74.88 -4.83)"/></symbol>
</svg>
